<mxfile host="app.diagrams.net" modified="2022-11-23T03:38:15.934Z" agent="5.0 (Windows NT 10.0; WOW64) AppleWebKit/537.36 (KHTML, like Gecko) Chrome/107.0.0.0 Safari/537.36" version="20.6.0" etag="f5y2IWmMfwh4RhGdpYf6" type="github">
  <diagram id="OopLQpDXogEL0hIuKpIz" name="Page-1">
    <mxGraphModel dx="1117" dy="630" grid="1" gridSize="10" guides="1" tooltips="1" connect="1" arrows="1" fold="1" page="1" pageScale="1" pageWidth="850" pageHeight="1100" math="0" shadow="0">
      <root>
        <mxCell id="0" />
        <mxCell id="1" parent="0" />
        <mxCell id="0Cz3wnj8ZdgZGPDhsdYK-4" style="edgeStyle=orthogonalEdgeStyle;rounded=0;orthogonalLoop=1;jettySize=auto;html=1;entryX=0.5;entryY=0;entryDx=0;entryDy=0;" edge="1" parent="1" source="0Cz3wnj8ZdgZGPDhsdYK-2" target="0Cz3wnj8ZdgZGPDhsdYK-3">
          <mxGeometry relative="1" as="geometry" />
        </mxCell>
        <mxCell id="0Cz3wnj8ZdgZGPDhsdYK-2" value="Actor" style="shape=umlActor;verticalLabelPosition=bottom;verticalAlign=top;html=1;outlineConnect=0;" vertex="1" parent="1">
          <mxGeometry x="280" y="40" width="30" height="60" as="geometry" />
        </mxCell>
        <mxCell id="0Cz3wnj8ZdgZGPDhsdYK-8" style="edgeStyle=orthogonalEdgeStyle;rounded=0;orthogonalLoop=1;jettySize=auto;html=1;exitX=1;exitY=0.75;exitDx=0;exitDy=0;entryX=0;entryY=0.75;entryDx=0;entryDy=0;" edge="1" parent="1" source="0Cz3wnj8ZdgZGPDhsdYK-3" target="0Cz3wnj8ZdgZGPDhsdYK-5">
          <mxGeometry relative="1" as="geometry" />
        </mxCell>
        <mxCell id="0Cz3wnj8ZdgZGPDhsdYK-14" value="update order" style="edgeLabel;html=1;align=center;verticalAlign=middle;resizable=0;points=[];" vertex="1" connectable="0" parent="0Cz3wnj8ZdgZGPDhsdYK-8">
          <mxGeometry x="-0.2632" y="-2" relative="1" as="geometry">
            <mxPoint x="10" y="-47" as="offset" />
          </mxGeometry>
        </mxCell>
        <mxCell id="0Cz3wnj8ZdgZGPDhsdYK-3" value="Order" style="rounded=1;whiteSpace=wrap;html=1;" vertex="1" parent="1">
          <mxGeometry x="235" y="190" width="120" height="60" as="geometry" />
        </mxCell>
        <mxCell id="0Cz3wnj8ZdgZGPDhsdYK-9" style="edgeStyle=orthogonalEdgeStyle;rounded=0;orthogonalLoop=1;jettySize=auto;html=1;exitX=0;exitY=0.25;exitDx=0;exitDy=0;entryX=1;entryY=0.25;entryDx=0;entryDy=0;" edge="1" parent="1" source="0Cz3wnj8ZdgZGPDhsdYK-5" target="0Cz3wnj8ZdgZGPDhsdYK-3">
          <mxGeometry relative="1" as="geometry" />
        </mxCell>
        <mxCell id="0Cz3wnj8ZdgZGPDhsdYK-13" value="update payment" style="edgeLabel;html=1;align=center;verticalAlign=middle;resizable=0;points=[];" vertex="1" connectable="0" parent="0Cz3wnj8ZdgZGPDhsdYK-9">
          <mxGeometry x="0.2632" y="1" relative="1" as="geometry">
            <mxPoint x="10" y="44" as="offset" />
          </mxGeometry>
        </mxCell>
        <mxCell id="0Cz3wnj8ZdgZGPDhsdYK-11" value="update shipping" style="edgeStyle=orthogonalEdgeStyle;rounded=0;orthogonalLoop=1;jettySize=auto;html=1;" edge="1" parent="1" source="0Cz3wnj8ZdgZGPDhsdYK-5" target="0Cz3wnj8ZdgZGPDhsdYK-10">
          <mxGeometry relative="1" as="geometry" />
        </mxCell>
        <mxCell id="0Cz3wnj8ZdgZGPDhsdYK-5" value="Payment" style="rounded=1;whiteSpace=wrap;html=1;" vertex="1" parent="1">
          <mxGeometry x="450" y="190" width="120" height="60" as="geometry" />
        </mxCell>
        <mxCell id="0Cz3wnj8ZdgZGPDhsdYK-12" style="edgeStyle=orthogonalEdgeStyle;rounded=0;orthogonalLoop=1;jettySize=auto;html=1;entryX=0.5;entryY=1;entryDx=0;entryDy=0;" edge="1" parent="1" source="0Cz3wnj8ZdgZGPDhsdYK-10" target="0Cz3wnj8ZdgZGPDhsdYK-3">
          <mxGeometry relative="1" as="geometry" />
        </mxCell>
        <mxCell id="0Cz3wnj8ZdgZGPDhsdYK-15" value="update order" style="edgeLabel;html=1;align=center;verticalAlign=middle;resizable=0;points=[];" vertex="1" connectable="0" parent="0Cz3wnj8ZdgZGPDhsdYK-12">
          <mxGeometry x="0.4943" y="2" relative="1" as="geometry">
            <mxPoint as="offset" />
          </mxGeometry>
        </mxCell>
        <mxCell id="0Cz3wnj8ZdgZGPDhsdYK-10" value="Shipping" style="whiteSpace=wrap;html=1;rounded=1;" vertex="1" parent="1">
          <mxGeometry x="450" y="330" width="120" height="60" as="geometry" />
        </mxCell>
        <mxCell id="0Cz3wnj8ZdgZGPDhsdYK-16" value="Order" style="swimlane;fontStyle=0;childLayout=stackLayout;horizontal=1;startSize=30;horizontalStack=0;resizeParent=1;resizeParentMax=0;resizeLast=0;collapsible=1;marginBottom=0;whiteSpace=wrap;html=1;" vertex="1" parent="1">
          <mxGeometry x="300" y="450" width="140" height="180" as="geometry" />
        </mxCell>
        <mxCell id="0Cz3wnj8ZdgZGPDhsdYK-17" value="Payment status: enum" style="text;strokeColor=none;fillColor=none;align=left;verticalAlign=middle;spacingLeft=4;spacingRight=4;overflow=hidden;points=[[0,0.5],[1,0.5]];portConstraint=eastwest;rotatable=0;whiteSpace=wrap;html=1;" vertex="1" parent="0Cz3wnj8ZdgZGPDhsdYK-16">
          <mxGeometry y="30" width="140" height="30" as="geometry" />
        </mxCell>
        <mxCell id="0Cz3wnj8ZdgZGPDhsdYK-18" value="Shipping status: enum" style="text;strokeColor=none;fillColor=none;align=left;verticalAlign=middle;spacingLeft=4;spacingRight=4;overflow=hidden;points=[[0,0.5],[1,0.5]];portConstraint=eastwest;rotatable=0;whiteSpace=wrap;html=1;" vertex="1" parent="0Cz3wnj8ZdgZGPDhsdYK-16">
          <mxGeometry y="60" width="140" height="30" as="geometry" />
        </mxCell>
        <mxCell id="0Cz3wnj8ZdgZGPDhsdYK-19" value="Id" style="text;strokeColor=none;fillColor=none;align=left;verticalAlign=middle;spacingLeft=4;spacingRight=4;overflow=hidden;points=[[0,0.5],[1,0.5]];portConstraint=eastwest;rotatable=0;whiteSpace=wrap;html=1;" vertex="1" parent="0Cz3wnj8ZdgZGPDhsdYK-16">
          <mxGeometry y="90" width="140" height="30" as="geometry" />
        </mxCell>
        <mxCell id="0Cz3wnj8ZdgZGPDhsdYK-34" value="Product: Product" style="text;strokeColor=none;fillColor=none;align=left;verticalAlign=middle;spacingLeft=4;spacingRight=4;overflow=hidden;points=[[0,0.5],[1,0.5]];portConstraint=eastwest;rotatable=0;whiteSpace=wrap;html=1;" vertex="1" parent="0Cz3wnj8ZdgZGPDhsdYK-16">
          <mxGeometry y="120" width="140" height="30" as="geometry" />
        </mxCell>
        <mxCell id="0Cz3wnj8ZdgZGPDhsdYK-36" value="Buyer: User" style="text;strokeColor=none;fillColor=none;align=left;verticalAlign=middle;spacingLeft=4;spacingRight=4;overflow=hidden;points=[[0,0.5],[1,0.5]];portConstraint=eastwest;rotatable=0;whiteSpace=wrap;html=1;" vertex="1" parent="0Cz3wnj8ZdgZGPDhsdYK-16">
          <mxGeometry y="150" width="140" height="30" as="geometry" />
        </mxCell>
        <mxCell id="0Cz3wnj8ZdgZGPDhsdYK-20" value="Payment" style="swimlane;fontStyle=0;childLayout=stackLayout;horizontal=1;startSize=30;horizontalStack=0;resizeParent=1;resizeParentMax=0;resizeLast=0;collapsible=1;marginBottom=0;whiteSpace=wrap;html=1;" vertex="1" parent="1">
          <mxGeometry x="540" y="640" width="140" height="90" as="geometry" />
        </mxCell>
        <mxCell id="0Cz3wnj8ZdgZGPDhsdYK-21" value="Remaining" style="text;strokeColor=none;fillColor=none;align=left;verticalAlign=middle;spacingLeft=4;spacingRight=4;overflow=hidden;points=[[0,0.5],[1,0.5]];portConstraint=eastwest;rotatable=0;whiteSpace=wrap;html=1;" vertex="1" parent="0Cz3wnj8ZdgZGPDhsdYK-20">
          <mxGeometry y="30" width="140" height="30" as="geometry" />
        </mxCell>
        <mxCell id="0Cz3wnj8ZdgZGPDhsdYK-22" value="User" style="text;strokeColor=none;fillColor=none;align=left;verticalAlign=middle;spacingLeft=4;spacingRight=4;overflow=hidden;points=[[0,0.5],[1,0.5]];portConstraint=eastwest;rotatable=0;whiteSpace=wrap;html=1;" vertex="1" parent="0Cz3wnj8ZdgZGPDhsdYK-20">
          <mxGeometry y="60" width="140" height="30" as="geometry" />
        </mxCell>
        <mxCell id="0Cz3wnj8ZdgZGPDhsdYK-29" value="User" style="swimlane;fontStyle=0;childLayout=stackLayout;horizontal=1;startSize=30;horizontalStack=0;resizeParent=1;resizeParentMax=0;resizeLast=0;collapsible=1;marginBottom=0;whiteSpace=wrap;html=1;" vertex="1" parent="1">
          <mxGeometry x="180" y="660" width="140" height="120" as="geometry" />
        </mxCell>
        <mxCell id="0Cz3wnj8ZdgZGPDhsdYK-30" value="name" style="text;strokeColor=none;fillColor=none;align=left;verticalAlign=middle;spacingLeft=4;spacingRight=4;overflow=hidden;points=[[0,0.5],[1,0.5]];portConstraint=eastwest;rotatable=0;whiteSpace=wrap;html=1;" vertex="1" parent="0Cz3wnj8ZdgZGPDhsdYK-29">
          <mxGeometry y="30" width="140" height="30" as="geometry" />
        </mxCell>
        <mxCell id="0Cz3wnj8ZdgZGPDhsdYK-31" value="payment" style="text;strokeColor=none;fillColor=none;align=left;verticalAlign=middle;spacingLeft=4;spacingRight=4;overflow=hidden;points=[[0,0.5],[1,0.5]];portConstraint=eastwest;rotatable=0;whiteSpace=wrap;html=1;" vertex="1" parent="0Cz3wnj8ZdgZGPDhsdYK-29">
          <mxGeometry y="60" width="140" height="30" as="geometry" />
        </mxCell>
        <mxCell id="0Cz3wnj8ZdgZGPDhsdYK-32" value="address" style="text;strokeColor=none;fillColor=none;align=left;verticalAlign=middle;spacingLeft=4;spacingRight=4;overflow=hidden;points=[[0,0.5],[1,0.5]];portConstraint=eastwest;rotatable=0;whiteSpace=wrap;html=1;" vertex="1" parent="0Cz3wnj8ZdgZGPDhsdYK-29">
          <mxGeometry y="90" width="140" height="30" as="geometry" />
        </mxCell>
      </root>
    </mxGraphModel>
  </diagram>
</mxfile>
